<svg xmlns="http://www.w3.org/2000/svg" viewBox="0 0 84.3 84.3"><defs><style>.cls-1{fill:#388449;}.cls-2{fill:#679ac9;}</style></defs><g id="Layer_2" data-name="Layer 2"><g id="Layer_1-2" data-name="Layer 1"><circle class="cls-1" cx="42.15" cy="42.15" r="42.15"/><path class="cls-2" d="M84.3,42.15A42.15,42.15,0,1,1,42.15,0,42.16,42.16,0,0,1,84.3,42.15ZM38.46,77.45C43.08,75,45,75.14,46.09,72.13s2.61-3.21,4.72-4.32c3.82-2,3.41-3.91,5-6.52s-.3-5.72-1.81-7.23S50.91,52,45.59,50.25c0,0-2.41-3.62-4.22-3.92s-4-.2-6.22-1.3-2.31-1.91-5.82-1.91-3-2.21-2.82-4.82-1.9-3.21-2.81-4.52-1.91-.9-3.21,0-1.1,4.12-4.42,1.71-.2-8.44,5-9,9.44-2,10.65,3.51c.5,2.52,4.71,2.32,4.71-3.41,0-3.41-3.11-6.12-3-7.53,0-2.91,2-5.62,6.53-7.23,2.51-.9,5.82-4.21,8.83-7.43a32.65,32.65,0,0,0-6.72-.8A38.66,38.66,0,0,0,14.87,15.11,37.67,37.67,0,0,0,4.73,33.28c2.21,3.71,4,7.33,10.44,8.63a26.07,26.07,0,0,1,13.25,7.83S21.29,62.9,29.53,66.61c3.31,1.41,2.91,2.71,2.91,2.71s-1.21,4.42-.8,6.23S33.84,79.86,38.46,77.45ZM80.63,42.31a38.62,38.62,0,0,0-11.35-27.2,39.22,39.22,0,0,0-7.73-5.83c0,.31-.9,1.31-.8,1.71.3,2.81,1.51,2.51.4,4.72s-.9,3.51-.5,6.22,8.23.71,9.13,2.41c.1,1.91-3.61,2.51-4.41,3-1.71.9-3.52,1.7-4.22,3.71-.7,1.81-.7,4.72-.2,7.73.5,2.61,2.51,5,4.92,5.52s4.92.6,6,.2,1.31.81,1.61,1.61,1.4,5.92.4,7.53-1.61,7-1.1,8.93a3.62,3.62,0,0,0,1,1.41A38.52,38.52,0,0,0,80.63,42.31Z"/></g></g></svg>