<svg xmlns="http://www.w3.org/2000/svg" viewBox="0 0 99.46 70.35"><defs><style>.cls-1{fill:#a5cd39;}.cls-2{fill:#fff;}</style></defs><g id="Layer_2" data-name="Layer 2"><g id="Layer_1-2" data-name="Layer 1"><path class="cls-1" d="M99.46,20.6,49.73,70.35S7.6,28.22,0,20.6A70.32,70.32,0,0,1,99.46,20.6Z"/><path class="cls-2" d="M21.12,24.32h0l3.73,3.73h0a35.21,35.21,0,0,1,49.74,0l3.73-3.73A40.53,40.53,0,0,0,21.12,24.32Zm7.47,7.46h0l3.74,3.73h0a24.64,24.64,0,0,1,34.81,0l3.73-3.73A29.94,29.94,0,0,0,28.59,31.78ZM43.51,46.72l6.22,6.22L56,46.72A8.79,8.79,0,0,0,43.51,46.72Zm-7.45-7.47h0L39.78,43a14.08,14.08,0,0,1,19.9,0l3.73-3.74A19.38,19.38,0,0,0,36.06,39.25Z"/></g></g></svg>